<svg xmlns="http://www.w3.org/2000/svg" viewBox="0 0 32 32">
  <defs>
    <linearGradient id="g" x1="0" y1="0" x2="1" y2="1">
      <stop offset="0" stop-color="#7c5cff"/>
      <stop offset="1" stop-color="#22d3a6"/>
    </linearGradient>
  </defs>
  <rect width="32" height="32" rx="8" fill="#0f1420"/>
  <path fill="url(#g)" d="M11 6h10v2h3a2 2 0 0 1 2 2c0 3-2 5-5 5.4A6 6 0 0 1 17 20v2h2a2 2 0 0 1 2 2v2H11v-2a2 2 0 0 1 2-2h2v-2a6 6 0 0 1-4-4.6C8 15 6 13 6 10a2 2 0 0 1 2-2h3V6Zm-3 4c0 1.6 1 2.8 2.4 3.2A8 8 0 0 1 10 12v-2H8Zm16 0h-2v2a8 8 0 0 1-.4 1.2C23 12.8 24 11.6 24 10Z"/>
</svg>
